<?xml version="1.0" encoding="UTF-8"?>
<svg id="Layer_1" data-name="Layer 1" xmlns="http://www.w3.org/2000/svg" viewBox="0 0 374.97 182.38">
  <defs>
    <style>
      .cls-1 {
        fill: #44200d;
      }

      .cls-1, .cls-2, .cls-3 {
        stroke-width: 0px;
      }

      .cls-2 {
        fill: #000;
      }

      .cls-3 {
        fill: #e39124;
      }
    </style>
  </defs>
  <path class="cls-3" d="M58.59,80.64v12.07h12.13v-12.07h-12.13ZM58.55,96.7v11.98h12.18v-11.98h-12.18ZM74.72,96.61v12.02h12.5v-12.02h-12.5ZM74.77,80.57v12.06h12.49v-12.06h-12.49ZM74.77,80.57v12.06h12.49v-12.06h-12.49ZM74.72,108.63h12.5v-12.02h-12.5v12.02ZM58.55,108.68h12.18v-11.98h-12.18v11.98ZM70.73,80.64h-12.13v12.07h12.13v-12.07ZM145.9,46.6c0-2.72-1.13-4.74-3.48-6.13-2.63-1.56-5.21-3.2-7.83-4.78C115.94,24.45,97.26,13.28,78.69,1.95c-4.17-2.54-7.86-2.64-12.04-.07C45.54,14.88,24.34,27.76,3.19,40.66.92,42.04-.01,44.06,0,46.67c.03,9.01.01,18.02,0,27.03,0,.55-.01,1.1,0,1.66.21,10.84-.38,21.76.81,32.49,2.13,19.35,11.81,34.98,27.06,46.83,7.84,6.09,16.53,11.1,24.92,16.46,4.85,3.1,10.05,5.7,14.78,8.97,3.78,2.61,6.1,3.12,10.01.77,2.2-1.33,4.39-2.68,6.56-4.07,10.89-6.99,22.19-13.44,32.55-21.14,18.1-13.44,28.29-31.79,29.11-54.45.66-18.18.1-36.41.09-54.62ZM18.95,47.79c17.26-10.32,34.33-20.97,51.42-31.56,1.68-1.04,2.91-1.14,4.68-.06,13.84,8.53,27.74,16.95,41.64,25.37,1.79,1.08,3.74,1.89,5.61,2.82.28.18.56.36.83.55.33.16.65.32.97.47l-.08-.09c2.51,1.77,5.02,3.52,7.5,5.34.3.22.5.8.5,1.21.03,6.5.02,13.01.02,20.04-3.96-2.4-7.46-4.52-10.96-6.64-13.27-8.05-26.5-16.15-39.82-24.11-2.79-1.67-5.89-2.85-8.9-4.12-.51-.22-1.41.12-1.97.46-17.42,10.58-34.83,21.19-52.23,31.8-1.2.73-2.37,1.53-4.16,2.68,0-5.48.36-10.33-.11-15.1-.45-4.49,1.29-6.82,5.05-9.07ZM87.87,157.96c-4.17,2.67-8.4,5.26-12.54,7.98-1.47.97-2.63,1.09-4.2.08-6.33-4.06-12.75-7.99-19.16-11.93-1.48-.91-3.04-1.67-4.9-2.68,4.16-2.49,7.75-4.61,11.31-6.78,3.99-2.44,7.89-5.03,11.97-7.31,1.13-.63,3.1-1.04,4.08-.47,7.86,4.5,15.57,9.27,23.92,14.31-3.91,2.54-7.19,4.7-10.49,6.82ZM126.43,121.72c-2.53,5.05-5.96,9.65-9.16,14.34-1.15,1.69-2.9,2.96-4.18,4.57-1.57,1.99-2.91,1.24-4.64.18-10.08-6.21-20.22-12.33-30.36-18.45-3.54-2.14-7.04-2.09-10.62.13-10.14,6.3-20.37,12.44-30.48,18.79-1.82,1.15-2.85.81-4.22-.54-12-11.85-18.31-26.15-18.74-43.02-.07-2.48-.11-4.97.03-7.44.05-.88.66-1.74,1.02-2.61h0c1.69-1.06,3.38-2.13,5.07-3.19,3.62-2.27,7.24-4.54,10.86-6.82h0c.19-.08.39-.17.59-.26,7.4-4.42,14.81-8.83,22.2-13.28,5.75-3.45,11.48-6.92,17.17-10.46,1.29-.8,2.23-.99,3.68-.1,18.1,11.06,36.23,22.06,54.4,32.98,2.11,1.27,2.94,2.62,3,5.19.24,10.42-.92,20.61-5.63,29.98ZM74.77,92.64h12.49v-12.06h-12.49v12.06ZM74.72,108.63h12.5v-12.02h-12.5v12.02ZM58.55,108.68h12.18v-11.98h-12.18v11.98ZM70.73,80.64h-12.13v12.07h12.13v-12.07Z"/>
  <path class="cls-3" d="M123.39,44.41c-.08.17-.17.33-.25.5-.28-.18-.55-.36-.83-.55.36.02.72.03,1.08.05Z"/>
  <path class="cls-3" d="M10.72,108.2c-1.56,1.33-3.12,2.65-5.07,4.3,1.46.66,2.14.97,2.34,1.06.61-.98,1.14-1.67,1.51-2.43.46-.95.81-1.96,1.2-2.94.16.26.33.52.49.78.07-.05.14-.11.2-.16-.23-.2-.46-.4-.68-.6Z"/>
  <path class="cls-3" d="M15.03,87.59c-.12-.1-.25-.19-.3-.31-.82-2.18-1.87-2.75-3.16-.39-1.36-1.26-2.59-2.4-3.81-3.53.1-.25.22-.5.32-.75,2.12.75,4.32,1.35,6.31,2.36.52.26.46,1.68.64,2.63Z"/>
  <path class="cls-3" d="M15.08,87.67c1.69-1.06,3.38-2.12,5.07-3.19-1.69,1.07-3.38,2.13-5.08,3.19,0,0-.02,0-.02.01,0-.03-.02-.07-.02-.1.02.02.04.04.06.06,0,.01,0,.02-.01.03Z"/>
  <path class="cls-3" d="M31.6,77.41c-.2.09-.4.18-.59.25-2.83.03-4.06-1.37-3.15-3.76,1.67.74,3.81.87,3.74,3.51Z"/>
  <rect class="cls-3" x="58.59" y="80.64" width="12.13" height="12.07"/>
  <rect class="cls-3" x="58.55" y="96.7" width="12.18" height="11.98"/>
  <rect class="cls-3" x="74.72" y="96.61" width="12.5" height="12.02"/>
  <rect class="cls-3" x="74.77" y="80.57" width="12.49" height="12.06"/>
  <path class="cls-2" d="M134.06,50.44c-.26.05-.52.09-.78.14v7.54c1.28-.45,2.6-.91,3.91-1.37-4.82-.39-3.51-3.61-3.14-6.31Z"/>
  <path class="cls-3" d="M132.16,103.18c.16.04.32.08.48.13.76-1.55,1.52-3.1,2.44-4.99-.36-.06-1.46-.33-1.49-.25-.55,1.68-.97,3.4-1.42,5.11Z"/>
  <path class="cls-3" d="M15.05,87.68l.04-.04s0,.02-.01.03h0s-.03.03-.04.03l.02-.02Z"/>
  <rect class="cls-3" x="58.59" y="80.64" width="12.13" height="12.07"/>
  <rect class="cls-3" x="58.55" y="96.7" width="12.18" height="11.98"/>
  <rect class="cls-3" x="74.72" y="96.61" width="12.5" height="12.02"/>
  <rect class="cls-3" x="74.77" y="80.57" width="12.49" height="12.06"/>
  <rect class="cls-3" x="74.77" y="80.57" width="12.49" height="12.06"/>
  <rect class="cls-3" x="74.72" y="96.61" width="12.5" height="12.02"/>
  <rect class="cls-3" x="58.59" y="80.64" width="12.13" height="12.07"/>
  <rect class="cls-3" x="58.55" y="96.7" width="12.18" height="11.98"/>
  <path class="cls-3" d="M15.09,87.64c-.12-.12-.31-.22-.36-.37-.82-2.18-1.86-2.76-3.16-.39-1.37-1.26-2.59-2.39-3.81-3.52.11-.25.21-.5.32-.76,2.12.75,4.32,1.35,6.31,2.36.54.27.46,1.78.65,2.73,0,0,.05-.05.05-.05Z"/>
  <path class="cls-3" d="M134.06,50.44c-.37,2.7-1.68,5.92,3.14,6.31-1.31.46-2.63.92-3.91,1.37v-7.54c.26-.05.52-.09.78-.14Z"/>
  <path class="cls-3" d="M31.6,77.4c-.2.09-.4.18-.59.26-2.82.03-4.06-1.37-3.14-3.77,1.67.74,3.81.87,3.74,3.51Z"/>
  <path class="cls-3" d="M10.71,108.19c-.4.98-.74,1.99-1.2,2.94-.37.76-.9,1.46-1.51,2.43-.2-.09-.88-.4-2.34-1.06,1.94-1.65,3.5-2.97,5.07-4.28,0,.01-.02-.03-.02-.03Z"/>
  <path class="cls-3" d="M132.16,103.18c.45-1.71.87-3.43,1.42-5.11.03-.08,1.13.19,1.49.25-.92,1.88-1.68,3.43-2.44,4.99-.16-.04-.32-.08-.48-.13Z"/>
  <path class="cls-3" d="M123.14,44.9l-.83-.55c.36.02.72.03,1.08.05-.08.17-.17.33-.25.5Z"/>
  <path class="cls-3" d="M10.71,108.19s.02.05.02.03c.22.19.45.39.68.59-.07.05-.14.11-.2.16-.16-.26-.33-.52-.49-.78Z"/>
  <path class="cls-3" d="M124.04,45.29s.08.09.08.09c0,0-.08-.09-.08-.09Z"/>
  <rect class="cls-3" x="74.77" y="80.57" width="12.49" height="12.06"/>
  <rect class="cls-3" x="74.72" y="96.61" width="12.5" height="12.02"/>
  <rect class="cls-3" x="58.59" y="80.64" width="12.13" height="12.07"/>
  <path class="cls-3" d="M58.55,96.7v11.98h12.18v-11.98h-12.18ZM66.84,107.15c-.6-.43-1.5-.73-1.72-1.3-.62-1.61-1.16-3.41,1.79-3.83-2.58,1.84.06,3.04-.07,5.13Z"/>
  <path class="cls-3" d="M66.91,102.03c-2.58,1.85.06,3.05-.07,5.13-.59-.43-1.5-.73-1.72-1.3-.62-1.61-1.16-3.4,1.79-3.83Z"/>
  <path class="cls-1" d="M177.84,92.71v-57.67h24.63c8.02,0,14.25,1.85,18.7,5.56,4.45,3.71,6.67,8.83,6.67,15.36,0,4.28-1.02,7.98-3.05,11.08-2.03,3.1-4.92,5.48-8.65,7.13-3.74,1.65-8.18,2.47-13.35,2.47h-17.55l5.93-5.85v21.91h-13.35ZM191.18,72.28l-5.93-6.26h16.81c4.12,0,7.19-.89,9.23-2.68,2.03-1.78,3.05-4.24,3.05-7.37s-1.02-5.66-3.05-7.41c-2.03-1.76-5.11-2.64-9.23-2.64h-16.81l5.93-6.34v32.71ZM214.49,92.71l-14.42-20.92h14.25l14.58,20.92h-14.42Z"/>
  <path class="cls-1" d="M259.47,93.37c-5.05,0-9.49-.99-13.3-2.97-3.82-1.98-6.77-4.68-8.86-8.11-2.09-3.43-3.13-7.35-3.13-11.74s1.03-8.39,3.09-11.82c2.06-3.43,4.87-6.12,8.44-8.07,3.57-1.95,7.61-2.93,12.11-2.93s8.25.92,11.74,2.76c3.49,1.84,6.25,4.48,8.28,7.91,2.03,3.43,3.05,7.54,3.05,12.32,0,.49-.03,1.06-.08,1.69-.05.63-.11,1.22-.16,1.77h-36v-7.5h29.25l-4.94,2.22c0-2.31-.47-4.31-1.4-6.01-.93-1.7-2.22-3.03-3.87-4-1.65-.96-3.57-1.44-5.77-1.44s-4.13.48-5.81,1.44c-1.68.96-2.98,2.31-3.91,4.04-.93,1.73-1.4,3.78-1.4,6.14v1.98c0,2.42.54,4.55,1.61,6.38,1.07,1.84,2.58,3.24,4.53,4.2,1.95.96,4.24,1.44,6.88,1.44,2.36,0,4.43-.36,6.22-1.07,1.78-.71,3.42-1.78,4.9-3.21l6.84,7.41c-2.03,2.31-4.59,4.08-7.66,5.31-3.08,1.24-6.62,1.85-10.63,1.85Z"/>
  <path class="cls-1" d="M289.46,92.71v-44.32h12.28v12.27l-2.31-3.71c1.59-2.97,3.87-5.24,6.84-6.84,2.97-1.59,6.34-2.39,10.13-2.39,3.51,0,6.66.7,9.43,2.1,2.77,1.4,4.96,3.54,6.55,6.43,1.59,2.88,2.39,6.58,2.39,11.08v25.37h-12.85v-23.4c0-3.57-.78-6.2-2.35-7.91-1.57-1.7-3.78-2.55-6.63-2.55-2.03,0-3.86.43-5.48,1.28-1.62.85-2.88,2.16-3.79,3.91-.91,1.76-1.36,4.01-1.36,6.76v21.91h-12.85Z"/>
  <path class="cls-1" d="M341.11,58.27v-9.89h30.73v9.89h-30.73ZM364.51,93.37c-5.22,0-9.28-1.33-12.19-3.99-2.91-2.66-4.37-6.63-4.37-11.9v-38.88h12.85v38.72c0,1.87.5,3.31,1.48,4.32.99,1.02,2.33,1.52,4.04,1.52,2.03,0,3.76-.55,5.19-1.65l3.46,9.06c-1.32.93-2.9,1.63-4.74,2.1-1.84.47-3.75.7-5.73.7Z"/>
  <path class="cls-1" d="M179.85,168.29v-62.68h27.13c5.61,0,10.45.91,14.51,2.73,4.06,1.82,7.19,4.43,9.4,7.84,2.21,3.4,3.31,7.46,3.31,12.18s-1.11,8.69-3.31,12.09c-2.21,3.4-5.34,6.01-9.4,7.84-4.06,1.82-8.9,2.73-14.51,2.73h-19.07l6.45-6.54v23.82h-14.51ZM194.36,146.08l-6.45-6.9h18.27c4.48,0,7.82-.95,10.03-2.87,2.21-1.91,3.31-4.57,3.31-7.97s-1.11-6.15-3.31-8.06c-2.21-1.91-5.55-2.87-10.03-2.87h-18.27l6.45-6.9v35.55Z"/>
  <path class="cls-1" d="M244.41,168.29v-62.68h13.97v62.68h-13.97Z"/>
  <path class="cls-1" d="M291.69,169.01c-4,0-7.57-.77-10.7-2.33-3.13-1.55-5.57-3.92-7.3-7.12-1.73-3.19-2.6-7.27-2.6-12.22v-27.22h13.97v25.16c0,4,.85,6.94,2.55,8.82,1.7,1.88,4.1,2.82,7.21,2.82,2.15,0,4.06-.46,5.73-1.39,1.67-.92,2.98-2.36,3.94-4.3.95-1.94,1.43-4.37,1.43-7.3v-23.82h13.97v48.18h-13.25v-13.25l2.42,3.85c-1.61,3.34-3.99,5.87-7.12,7.57-3.13,1.7-6.55,2.55-10.25,2.55Z"/>
  <path class="cls-1" d="M349.09,169.01c-4.12,0-8.07-.49-11.87-1.48-3.79-.99-6.79-2.22-9-3.72l4.66-10.03c2.21,1.37,4.82,2.49,7.84,3.36,3.01.87,5.98,1.3,8.91,1.3,3.22,0,5.51-.39,6.85-1.16,1.34-.78,2.02-1.85,2.02-3.22,0-1.13-.52-1.98-1.57-2.55-1.05-.57-2.43-1-4.16-1.3-1.73-.3-3.63-.6-5.69-.9s-4.13-.7-6.22-1.21c-2.09-.51-4-1.27-5.73-2.28-1.73-1.01-3.12-2.39-4.16-4.12-1.04-1.73-1.57-3.97-1.57-6.72,0-3.04.88-5.73,2.64-8.06,1.76-2.33,4.31-4.16,7.66-5.51,3.34-1.34,7.34-2.02,12-2.02,3.28,0,6.63.36,10.03,1.08,3.4.72,6.24,1.76,8.51,3.13l-4.66,9.94c-2.33-1.37-4.67-2.31-7.03-2.82-2.36-.51-4.64-.76-6.85-.76-3.1,0-5.37.42-6.81,1.25-1.43.84-2.15,1.91-2.15,3.22,0,1.19.52,2.09,1.57,2.69,1.04.6,2.43,1.08,4.16,1.43,1.73.36,3.63.67,5.69.94,2.06.27,4.13.67,6.22,1.21,2.09.54,3.98,1.3,5.69,2.28,1.7.99,3.09,2.33,4.16,4.03,1.07,1.7,1.61,3.93,1.61,6.67,0,2.99-.9,5.63-2.69,7.92-1.79,2.3-4.37,4.11-7.75,5.42-3.37,1.31-7.48,1.97-12.31,1.97Z"/>
</svg>