<svg width="11" height="15" viewBox="0 0 11 15" fill="none" xmlns="http://www.w3.org/2000/svg">
<path d="M5.45969 14.2C4.47302 14.2 3.50635 14.06 2.55969 13.78C1.62635 13.4867 0.839688 13.0867 0.199688 12.58L1.31969 10.56C1.82635 10.9733 2.43969 11.3067 3.15969 11.56C3.87969 11.8133 4.63302 11.94 5.41969 11.94C6.35302 11.94 7.07969 11.7533 7.59969 11.38C8.11969 10.9933 8.37969 10.4733 8.37969 9.82C8.37969 9.18 8.13969 8.67333 7.65969 8.3C7.17969 7.92667 6.40635 7.74 5.33969 7.74H4.05969V5.96L8.05969 1.2L8.39969 2.18H0.879688V-9.53674e-07H10.4197V1.74L6.41969 6.5L5.05969 5.7H5.83969C7.55969 5.7 8.84635 6.08667 9.69969 6.86C10.5664 7.62 10.9997 8.6 10.9997 9.8C10.9997 10.5867 10.7997 11.3133 10.3997 11.98C9.99969 12.6467 9.38635 13.1867 8.55969 13.6C7.74635 14 6.71302 14.2 5.45969 14.2Z" fill="white"/>
</svg>
