<svg width="19" height="23" viewBox="0 0 19 23" fill="none" xmlns="http://www.w3.org/2000/svg">
<path d="M1.10216 13.9913C0.92947 14.063 0.786982 14.1924 0.698955 14.3574C0.610928 14.5224 0.582804 14.7127 0.619373 14.8961C0.655942 15.0795 0.754943 15.2445 0.899518 15.3631C1.04409 15.4817 1.2253 15.5465 1.41229 15.5465C1.51871 15.5462 1.62406 15.5252 1.7225 15.4848C1.92023 15.4023 2.07714 15.2447 2.15878 15.0467C2.24043 14.8486 2.24013 14.6262 2.15794 14.4284C2.07576 14.2305 1.91842 14.0734 1.72047 13.9914C1.52252 13.9095 1.30013 13.9094 1.10216 13.9913Z" fill="#FFFCFC"/>
<path d="M2.67483 16.9062C2.56205 17.0194 2.48537 17.1635 2.45447 17.3202C2.42356 17.477 2.43983 17.6394 2.50121 17.787C2.56259 17.9345 2.66633 18.0605 2.79932 18.1491C2.9323 18.2377 3.08856 18.2849 3.24835 18.2847C3.40814 18.2845 3.56429 18.2369 3.69705 18.148C3.82981 18.0591 3.93323 17.9328 3.99424 17.7851C4.05525 17.6374 4.07111 17.4749 4.03981 17.3183C4.00852 17.1616 3.93147 17.0177 3.81841 16.9047C3.74337 16.8295 3.6542 16.7698 3.55602 16.7291C3.45784 16.6885 3.35259 16.6676 3.24632 16.6677C3.14005 16.6679 3.03485 16.689 2.93678 16.7299C2.8387 16.7708 2.74968 16.8307 2.67483 16.9062Z" fill="#FFFCFC"/>
<path d="M6.29666 18.5644C6.09862 18.4822 5.87602 18.4819 5.67783 18.5638C5.47963 18.6457 5.32208 18.8029 5.23982 19.001C5.15757 19.199 5.15736 19.4216 5.23923 19.6198C5.3211 19.818 5.47835 19.9756 5.67639 20.0578C5.77483 20.0981 5.88013 20.1191 5.98652 20.1195C6.17343 20.1194 6.35452 20.0545 6.49899 19.9359C6.64346 19.8173 6.74239 19.6524 6.77894 19.4691C6.8155 19.2858 6.78742 19.0955 6.69949 18.9305C6.61157 18.7656 6.46922 18.6362 6.29666 18.5644Z" fill="#FFFCFC"/>
<path d="M15.1973 6.33004C15.3302 6.33004 15.4611 6.29726 15.5783 6.2346C15.6955 6.17194 15.7954 6.08133 15.8692 5.97081C15.943 5.86029 15.9885 5.73327 16.0014 5.601C16.0144 5.46874 15.9946 5.33531 15.9437 5.21255C15.8927 5.08979 15.8123 4.98148 15.7096 4.89723C15.6068 4.81297 15.4848 4.75537 15.3544 4.72953C15.2241 4.70369 15.0893 4.71041 14.9622 4.74908C14.835 4.78776 14.7194 4.85721 14.6255 4.95126C14.5122 5.06413 14.4349 5.20813 14.4036 5.36499C14.3722 5.52184 14.3882 5.68447 14.4495 5.83223C14.5108 5.97998 14.6146 6.10619 14.7477 6.19483C14.8809 6.28346 15.0374 6.33053 15.1973 6.33004Z" fill="#FFFCFC"/>
<path d="M17.0317 9.06998C17.1381 9.07026 17.2436 9.04928 17.3418 9.00826C17.5273 8.93133 17.6775 8.78817 17.7633 8.60661C17.8491 8.42506 17.8643 8.21809 17.806 8.02595C17.7476 7.83381 17.6199 7.67024 17.4476 7.56704C17.2754 7.46384 17.0709 7.42839 16.874 7.46759C16.677 7.50678 16.5017 7.61782 16.3821 7.77911C16.2625 7.94039 16.2071 8.1404 16.2268 8.34023C16.2465 8.54007 16.3397 8.72545 16.4885 8.86032C16.6373 8.9952 16.8309 9.06993 17.0317 9.06998Z" fill="#FFFCFC"/>
<path d="M12.1472 4.43529C12.3452 4.51745 12.5678 4.51761 12.766 4.43575C12.9642 4.35388 13.1217 4.19668 13.2041 3.99869C13.2653 3.85106 13.2814 3.68857 13.2504 3.53177C13.2193 3.37498 13.1424 3.23092 13.0295 3.11781C12.9165 3.00469 12.7726 2.9276 12.6159 2.89628C12.4591 2.86496 12.2966 2.88082 12.1489 2.94185C12.0011 3.00288 11.8748 3.10634 11.7859 3.23915C11.6969 3.37196 11.6494 3.52816 11.6492 3.68801C11.649 3.84785 11.6962 4.00416 11.7848 4.13717C11.8735 4.27018 11.9996 4.37393 12.1472 4.43529Z" fill="#FFFCFC"/>
<path d="M18.44 12.3927C18.4514 12.2801 18.4391 12.1663 18.4038 12.0587C18.3686 11.9511 18.3112 11.8521 18.2354 11.768C18.1596 11.6839 18.0671 11.6166 17.9637 11.5704C17.8603 11.5242 17.7484 11.5002 17.6352 11.4999C17.4329 11.5008 17.2383 11.5772 17.0893 11.7142C16.9404 11.8511 16.848 12.0387 16.8302 12.2402C16.6439 14.1295 15.7622 15.8821 14.3563 17.1578C12.9503 18.4335 11.1205 19.1412 9.22209 19.1435C9.03151 19.1436 8.84707 19.2109 8.70126 19.3336C8.55545 19.4563 8.45762 19.6266 8.42502 19.8143C8.40461 19.947 8.41639 20.0827 8.45935 20.2099C8.50232 20.337 8.57522 20.4521 8.67191 20.5452L10.89 22.7632C11.0416 22.9149 11.2472 23 11.4617 23C11.6761 23 11.8817 22.9149 12.0333 22.7632C12.185 22.6116 12.2701 22.406 12.2701 22.1916C12.2701 21.9771 12.185 21.7715 12.0333 21.6199L11.0022 20.5888C12.9577 20.2024 14.7369 19.1968 16.0765 17.7207C17.416 16.2446 18.2447 14.3764 18.44 12.3927Z" fill="#FFFCFC"/>
<path d="M0.808896 11.4999C1.01119 11.499 1.20585 11.4225 1.35476 11.2856C1.50366 11.1487 1.59608 10.9611 1.61392 10.7596C1.80019 8.8703 2.68189 7.11766 4.08782 5.84197C5.49375 4.56627 7.32358 3.85855 9.22201 3.85622C9.41259 3.85617 9.59703 3.78885 9.74284 3.66614C9.88865 3.54343 9.98648 3.3732 10.0191 3.18543C10.0395 3.05274 10.0277 2.91709 9.98475 2.7899C9.94178 2.66271 9.86888 2.5477 9.77218 2.45457L7.55413 0.236509C7.40248 0.085017 7.19689 -5.35874e-05 6.98254 2.53253e-08C6.76819 5.36381e-05 6.56263 0.085227 6.41106 0.236795C6.25949 0.388362 6.17432 0.593917 6.17426 0.808267C6.17421 1.02262 6.25927 1.22822 6.41076 1.37986L7.44187 2.41097C5.48636 2.79731 3.70719 3.80295 2.36765 5.27906C1.02811 6.75517 0.199384 8.62332 0.00411498 10.607C-0.00727386 10.7197 0.00504121 10.8335 0.0402681 10.9411C0.0754949 11.0487 0.132854 11.1477 0.208654 11.2318C0.284455 11.3159 0.377019 11.3832 0.480393 11.4294C0.583766 11.4755 0.69568 11.4995 0.808896 11.4999Z" fill="#FFFCFC"/>
<path d="M15.4693 11.4999C15.4693 10.2643 15.1029 9.05649 14.4164 8.02914C13.73 7.00179 12.7543 6.20107 11.6128 5.72823C10.4712 5.25539 9.21514 5.13168 8.0033 5.37273C6.79146 5.61378 5.67831 6.20877 4.80462 7.08245C3.93094 7.95614 3.33595 9.06929 3.09489 10.2811C2.85384 11.493 2.97756 12.7491 3.4504 13.8906C3.92323 15.0321 4.72396 16.0078 5.7513 16.6943C6.77865 17.3807 7.98649 17.7471 9.22207 17.7471C10.0425 17.7471 10.8548 17.5855 11.6128 17.2716C12.3707 16.9576 13.0594 16.4975 13.6395 15.9174C14.2196 15.3372 14.6798 14.6486 14.9937 13.8906C15.3077 13.1327 15.4693 12.3203 15.4693 11.4999ZM8.82554 12.953C8.53005 12.8727 8.26609 12.7042 8.06887 12.47C7.87165 12.2357 7.75057 11.9469 7.72178 11.6421C7.69299 11.3373 7.75786 11.0309 7.90774 10.7639C8.05762 10.4969 8.28537 10.2819 8.5606 10.1478V7.2371C8.5606 7.15024 8.57771 7.06422 8.61095 6.98397C8.64419 6.90372 8.69291 6.8308 8.75434 6.76937C8.81576 6.70795 8.88868 6.65923 8.96893 6.62598C9.04918 6.59274 9.1352 6.57563 9.22207 6.57563C9.30893 6.57563 9.39495 6.59274 9.4752 6.62598C9.55545 6.65923 9.62837 6.70795 9.68979 6.76937C9.75122 6.8308 9.79994 6.90372 9.83318 6.98397C9.86643 7.06422 9.88354 7.15024 9.88354 7.2371V10.1478C10.2139 10.3081 10.4739 10.584 10.6145 10.9233C10.755 11.2625 10.7663 11.6415 10.6462 11.9885L11.7761 13.1184C11.8997 13.2426 11.969 13.4107 11.9688 13.5859C11.9686 13.761 11.8989 13.929 11.775 14.0529C11.6512 14.1767 11.4832 14.2464 11.308 14.2466C11.1328 14.2468 10.9647 14.1775 10.8406 14.0539L9.71067 12.924C9.42539 13.0232 9.11669 13.0333 8.82554 12.953Z" fill="#FFFCFC"/>
</svg>
