<svg width="47" height="48" viewBox="0 0 47 48" fill="none" xmlns="http://www.w3.org/2000/svg">
<rect width="47" height="48" rx="13" fill="#E39124"/>
<path d="M30.5 15.5L32.5 17.5L17.5 32.5L15.5 30.5L30.5 15.5ZM19 16C20.66 16 22 17.34 22 19C22 20.66 20.66 22 19 22C17.34 22 16 20.66 16 19C16 17.34 17.34 16 19 16ZM29 26C30.66 26 32 27.34 32 29C32 30.66 30.66 32 29 32C27.34 32 26 30.66 26 29C26 27.34 27.34 26 29 26ZM19 18C18.45 18 18 18.45 18 19C18 19.55 18.45 20 19 20C19.55 20 20 19.55 20 19C20 18.45 19.55 18 19 18ZM29 28C28.45 28 28 28.45 28 29C28 29.55 28.45 30 29 30C29.55 30 30 29.55 30 29C30 28.45 29.55 28 29 28Z" fill="white"/>
</svg>
