<svg width="44" height="44" viewBox="0 0 44 44" fill="none" xmlns="http://www.w3.org/2000/svg">
<path d="M22.1038 27.6569L24.9323 30.4854L33.4176 22.0001L24.9323 13.5148L22.1039 16.3432L25.7607 20.0001H10.6864V24.0001H25.7607L22.1038 27.6569Z" fill="#E39124"/>
<path fill-rule="evenodd" clip-rule="evenodd" d="M37.5563 37.5563C46.1479 28.9648 46.1479 15.0352 37.5563 6.44365C28.9648 -2.14788 15.0352 -2.14788 6.44365 6.44365C-2.14788 15.0352 -2.14788 28.9648 6.44365 37.5563C15.0352 46.1479 28.9648 46.1479 37.5563 37.5563ZM34.7279 34.7279C41.7574 27.6985 41.7574 16.3015 34.7279 9.27208C27.6985 2.24264 16.3015 2.24264 9.27208 9.27208C2.24264 16.3015 2.24264 27.6985 9.27208 34.7279C16.3015 41.7574 27.6985 41.7574 34.7279 34.7279Z" fill="#E39124"/>
</svg>
