<svg width="27" height="27" viewBox="0 0 27 27" fill="none" xmlns="http://www.w3.org/2000/svg">
<path fill-rule="evenodd" clip-rule="evenodd" d="M14.9363 22.7056V13.9844H17.9196L18.3672 10.5846H14.9363V8.41432C14.9363 7.43031 15.2137 6.75971 16.654 6.75971L18.4879 6.75898V3.71807C18.1708 3.67764 17.0821 3.58496 15.815 3.58496C13.169 3.58496 11.3576 5.16907 11.3576 8.07761V10.5846H8.36523V13.9844H11.3576V22.7056H14.9363Z" fill="white"/>
<mask id="mask0_166_17948" style="mask-type:luminance" maskUnits="userSpaceOnUse" x="8" y="3" width="11" height="20">
<path fill-rule="evenodd" clip-rule="evenodd" d="M14.9363 22.7056V13.9844H17.9196L18.3672 10.5846H14.9363V8.41432C14.9363 7.43031 15.2137 6.75971 16.654 6.75971L18.4879 6.75898V3.71807C18.1708 3.67764 17.0821 3.58496 15.815 3.58496C13.169 3.58496 11.3576 5.16907 11.3576 8.07761V10.5846H8.36523V13.9844H11.3576V22.7056H14.9363Z" fill="white"/>
</mask>
<g mask="url(#mask0_166_17948)">
</g>
</svg>
