<svg width="47" height="48" viewBox="0 0 47 48" fill="none" xmlns="http://www.w3.org/2000/svg">
<rect width="47" height="48" rx="13" fill="#E39124"/>
<path d="M22 34V27.43M24 23H24.01M24 19H24.01M26 27.43V34M27 28C26.1345 27.3509 25.0819 27 24 27C22.9181 27 21.8655 27.3509 21 28M28 23H28.01M28 19H28.01M20 23H20.01M20 19H20.01" stroke="white" stroke-width="2" stroke-linecap="round" stroke-linejoin="round"/>
<path d="M30 14H18C16.8954 14 16 14.8954 16 16V32C16 33.1046 16.8954 34 18 34H30C31.1046 34 32 33.1046 32 32V16C32 14.8954 31.1046 14 30 14Z" stroke="white" stroke-width="2" stroke-linecap="round" stroke-linejoin="round"/>
</svg>
