<svg width="22" height="22" viewBox="0 0 22 22" fill="none" xmlns="http://www.w3.org/2000/svg">
<path d="M15.0322 2C17.7714 2 20.0001 4.22884 20 6.96777V15.0322C20 17.7712 17.7714 20 15.0322 20H6.9668C4.22807 19.9998 2 17.7711 2 15.0322V6.96777C2 4.22899 4.22807 2.00024 6.9668 2H15.0322ZM6.9668 3.59668C5.10868 3.59692 3.59668 5.1096 3.59668 6.96777V15.0322C3.59668 16.8905 5.10868 18.4032 6.9668 18.4033H15.0322C16.8325 18.4033 18.3079 16.9842 18.3984 15.2061L18.4033 15.0322V6.96777C18.4033 5.10945 16.8907 3.59668 15.0322 3.59668H6.9668ZM11 6.28613C13.5995 6.28613 15.7138 8.40049 15.7139 11C15.7139 13.5994 13.5995 15.7139 11 15.7139C8.4005 15.7139 6.28613 13.5994 6.28613 11C6.28619 8.40049 8.40054 6.28613 11 6.28613ZM11 7.90918C9.29557 7.90918 7.90918 9.29553 7.90918 11C7.90918 12.7044 9.29568 14.0908 11 14.0908C12.7043 14.0908 14.0908 12.7044 14.0908 11C14.0908 9.29553 12.7044 7.90918 11 7.90918Z" fill="white"/>
<mask id="mask0_166_17950" style="mask-type:luminance" maskUnits="userSpaceOnUse" x="2" y="2" width="18" height="18">
<path d="M15.0322 2C17.7714 2 20.0001 4.22884 20 6.96777V15.0322C20 17.7712 17.7714 20 15.0322 20H6.9668C4.22807 19.9998 2 17.7711 2 15.0322V6.96777C2 4.22899 4.22807 2.00024 6.9668 2H15.0322ZM6.9668 3.59668C5.10868 3.59692 3.59668 5.1096 3.59668 6.96777V15.0322C3.59668 16.8905 5.10868 18.4032 6.9668 18.4033H15.0322C16.8325 18.4033 18.3079 16.9842 18.3984 15.2061L18.4033 15.0322V6.96777C18.4033 5.10945 16.8907 3.59668 15.0322 3.59668H6.9668ZM11 6.28613C13.5995 6.28613 15.7138 8.40049 15.7139 11C15.7139 13.5994 13.5995 15.7139 11 15.7139C8.4005 15.7139 6.28613 13.5994 6.28613 11C6.28619 8.40049 8.40054 6.28613 11 6.28613ZM11 7.90918C9.29557 7.90918 7.90918 9.29553 7.90918 11C7.90918 12.7044 9.29568 14.0908 11 14.0908C12.7043 14.0908 14.0908 12.7044 14.0908 11C14.0908 9.29553 12.7044 7.90918 11 7.90918Z" fill="white"/>
</mask>
<g mask="url(#mask0_166_17950)">
</g>
</svg>
