<svg width="19" height="19" viewBox="0 0 19 19" fill="none" xmlns="http://www.w3.org/2000/svg">
<g clip-path="url(#clip0_166_17931)">
<path d="M17.5156 0H1.48438C0.664258 0 0 0.664258 0 1.48438V17.5156C0 18.3357 0.664258 19 1.48438 19H17.5156C18.3357 19 19 18.3357 19 17.5156V1.48438C19 0.664258 18.3357 0 17.5156 0ZM6.84297 13.4744H4.99121V7.54805H6.84297V13.4744ZM5.86699 6.80586H5.85215C5.18047 6.80586 4.74629 6.35313 4.74629 5.77793C4.74629 5.1916 5.19531 4.75 5.87812 4.75C6.56094 4.75 6.98027 5.1916 6.99512 5.77793C6.99883 6.34941 6.56465 6.80586 5.86699 6.80586ZM14.25 13.4744H12.1496V10.4092C12.1496 9.60762 11.823 9.0584 11.0994 9.0584C10.5465 9.0584 10.2385 9.42949 10.0975 9.78574C10.0455 9.91191 10.0529 10.09 10.0529 10.2719V13.4744H7.97109C7.97109 13.4744 7.99707 8.0416 7.97109 7.54805H10.0529V8.47949C10.1754 8.07129 10.8396 7.49238 11.901 7.49238C13.2184 7.49238 14.25 8.3459 14.25 10.1791V13.4744Z" fill="white"/>
</g>
<defs>
<clipPath id="clip0_166_17931">
<rect width="19" height="19" fill="white"/>
</clipPath>
</defs>
</svg>
