<svg width="27" height="24" viewBox="0 0 27 24" fill="none" xmlns="http://www.w3.org/2000/svg">
<path d="M22.7362 8.82003L15.75 2.78003C15.1582 2.27988 14.3728 2.00098 13.5563 2.00098C12.7397 2.00098 11.9543 2.27988 11.3625 2.78003L4.37625 8.78003C4.06584 9.02089 3.81619 9.31733 3.64364 9.64993C3.47109 9.98253 3.37955 10.3438 3.375 10.71V19.29C3.38686 20.0176 3.72267 20.7114 4.30888 21.2194C4.89509 21.7273 5.6839 22.008 6.5025 22H20.4975C21.3161 22.008 22.1049 21.7273 22.6911 21.2194C23.2773 20.7114 23.6131 20.0176 23.625 19.29V10.71C23.6241 10.3585 23.5452 10.0106 23.3926 9.68625C23.2401 9.36191 23.0171 9.06754 22.7362 8.82003ZM12.87 4.22003C13.0421 4.08019 13.2668 4.00264 13.5 4.00264C13.7332 4.00264 13.9579 4.08019 14.13 4.22003L20.25 9.50003L14.0962 14.78C13.9241 14.9199 13.6994 14.9974 13.4663 14.9974C13.2331 14.9974 13.0083 14.9199 12.8363 14.78L6.75 9.50003L12.87 4.22003ZM21.375 19.29C21.3605 19.4863 21.261 19.67 21.0974 19.8024C20.9337 19.9348 20.7187 20.0056 20.4975 20H6.5025C6.2813 20.0056 6.06628 19.9348 5.90263 19.8024C5.73899 19.67 5.63947 19.4863 5.625 19.29V11.35L10.1813 15.25L8.31375 16.85C8.10422 17.0374 7.98661 17.2908 7.98661 17.555C7.98661 17.8192 8.10422 18.0727 8.31375 18.26C8.41831 18.3575 8.54396 18.4352 8.68315 18.4885C8.82234 18.5418 8.97221 18.5695 9.12375 18.57C9.4134 18.569 9.69145 18.4687 9.9 18.29L11.8912 16.59C12.3858 16.8587 12.9542 17.0008 13.5337 17.0008C14.1133 17.0008 14.6817 16.8587 15.1762 16.59L17.1675 18.29C17.376 18.4687 17.6541 18.569 17.9437 18.57C18.0953 18.5695 18.2452 18.5418 18.3843 18.4885C18.5235 18.4352 18.6492 18.3575 18.7537 18.26C18.9633 18.0727 19.0809 17.8192 19.0809 17.555C19.0809 17.2908 18.9633 17.0374 18.7537 16.85L16.875 15.25L21.375 11.35V19.29Z" fill="#F0FDF4"/>
</svg>
