<svg width="48" height="48" viewBox="0 0 48 48" fill="none" xmlns="http://www.w3.org/2000/svg">
<circle cx="24" cy="24" r="24" fill="#E39124"/>
<path d="M23.4597 31.2C22.473 31.2 21.5064 31.06 20.5597 30.78C19.6264 30.4867 18.8397 30.0867 18.1997 29.58L19.3197 27.56C19.8264 27.9733 20.4397 28.3067 21.1597 28.56C21.8797 28.8133 22.633 28.94 23.4197 28.94C24.353 28.94 25.0797 28.7533 25.5997 28.38C26.1197 27.9933 26.3797 27.4733 26.3797 26.82C26.3797 26.18 26.1397 25.6733 25.6597 25.3C25.1797 24.9267 24.4064 24.74 23.3397 24.74H22.0597V22.96L26.0597 18.2L26.3997 19.18H18.8797V17H28.4197V18.74L24.4197 23.5L23.0597 22.7H23.8397C25.5597 22.7 26.8464 23.0867 27.6997 23.86C28.5664 24.62 28.9997 25.6 28.9997 26.8C28.9997 27.5867 28.7997 28.3133 28.3997 28.98C27.9997 29.6467 27.3864 30.1867 26.5597 30.6C25.7464 31 24.713 31.2 23.4597 31.2Z" fill="white"/>
</svg>
