<svg width="48" height="48" viewBox="0 0 48 48" fill="none" xmlns="http://www.w3.org/2000/svg">
<circle cx="24" cy="24" r="24" fill="#E39124"/>
<path d="M23.6802 31.2C22.6935 31.2 21.7268 31.06 20.7802 30.78C19.8468 30.4867 19.0602 30.0867 18.4202 29.58L19.5202 27.56C20.0268 27.9733 20.6402 28.3067 21.3602 28.56C22.0935 28.8133 22.8535 28.94 23.6402 28.94C24.5602 28.94 25.2802 28.7467 25.8002 28.36C26.3335 27.9733 26.6002 27.4533 26.6002 26.8C26.6002 26.36 26.4868 25.9733 26.2602 25.64C26.0468 25.3067 25.6602 25.0533 25.1002 24.88C24.5535 24.7067 23.8002 24.62 22.8402 24.62H19.4602L20.1802 17H28.4002V19.18H21.1402L22.5002 17.94L21.9602 23.64L20.6002 22.42H23.4202C24.8068 22.42 25.9202 22.6067 26.7602 22.98C27.6135 23.34 28.2335 23.8467 28.6202 24.5C29.0202 25.14 29.2202 25.8733 29.2202 26.7C29.2202 27.5133 29.0202 28.26 28.6202 28.94C28.2202 29.62 27.6068 30.1667 26.7802 30.58C25.9668 30.9933 24.9335 31.2 23.6802 31.2Z" fill="white"/>
</svg>
