<svg width="48" height="48" viewBox="0 0 48 48" fill="none" xmlns="http://www.w3.org/2000/svg">
<circle cx="24" cy="24" r="24" fill="#E39124"/>
<path d="M24.6705 31.2C23.4038 31.2 22.3171 30.9333 21.4105 30.4C20.5038 29.8533 19.8105 29.0667 19.3305 28.04C18.8505 27.0133 18.6105 25.7467 18.6105 24.24C18.6105 22.64 18.8971 21.2867 19.4705 20.18C20.0571 19.0733 20.8638 18.2333 21.8905 17.66C22.9305 17.0867 24.1238 16.8 25.4705 16.8C26.1771 16.8 26.8505 16.8733 27.4905 17.02C28.1438 17.1667 28.6971 17.3933 29.1505 17.7L28.1905 19.66C27.8038 19.4067 27.3838 19.2333 26.9305 19.14C26.4905 19.0333 26.0238 18.98 25.5305 18.98C24.2105 18.98 23.1638 19.3867 22.3905 20.2C21.6171 21.0133 21.2305 22.2133 21.2305 23.8C21.2305 24.0533 21.2371 24.3533 21.2505 24.7C21.2638 25.0333 21.3105 25.3733 21.3905 25.72L20.5905 24.84C20.8305 24.2933 21.1571 23.84 21.5705 23.48C21.9971 23.1067 22.4971 22.8267 23.0705 22.64C23.6571 22.4533 24.2905 22.36 24.9705 22.36C25.8905 22.36 26.7105 22.54 27.4305 22.9C28.1505 23.2467 28.7238 23.7467 29.1505 24.4C29.5771 25.04 29.7905 25.7933 29.7905 26.66C29.7905 27.58 29.5638 28.38 29.1105 29.06C28.6571 29.74 28.0438 30.2667 27.2705 30.64C26.4971 31.0133 25.6305 31.2 24.6705 31.2ZM24.5305 29.16C25.0638 29.16 25.5371 29.0667 25.9505 28.88C26.3638 28.68 26.6838 28.4 26.9105 28.04C27.1505 27.68 27.2705 27.26 27.2705 26.78C27.2705 26.0467 27.0171 25.4667 26.5105 25.04C26.0038 24.6133 25.3238 24.4 24.4705 24.4C23.9105 24.4 23.4171 24.5067 22.9905 24.72C22.5771 24.92 22.2438 25.2 21.9905 25.56C21.7505 25.92 21.6305 26.3333 21.6305 26.8C21.6305 27.2267 21.7438 27.62 21.9705 27.98C22.1971 28.34 22.5238 28.6267 22.9505 28.84C23.3905 29.0533 23.9171 29.16 24.5305 29.16Z" fill="white"/>
</svg>
