<svg width="48" height="48" viewBox="0 0 48 48" fill="none" xmlns="http://www.w3.org/2000/svg">
<circle cx="24" cy="24" r="24" fill="#E39124"/>
<path d="M18.8797 31V29.26L24.4397 23.98C24.9064 23.54 25.253 23.1533 25.4797 22.82C25.7064 22.4867 25.853 22.18 25.9197 21.9C25.9997 21.6067 26.0397 21.3333 26.0397 21.08C26.0397 20.44 25.8197 19.9467 25.3797 19.6C24.9397 19.24 24.293 19.06 23.4397 19.06C22.7597 19.06 22.1397 19.18 21.5797 19.42C21.033 19.66 20.5597 20.0267 20.1597 20.52L18.3397 19.12C18.8864 18.3867 19.6197 17.82 20.5397 17.42C21.473 17.0067 22.513 16.8 23.6597 16.8C24.673 16.8 25.553 16.9667 26.2997 17.3C27.0597 17.62 27.6397 18.08 28.0397 18.68C28.453 19.28 28.6597 19.9933 28.6597 20.82C28.6597 21.2733 28.5997 21.7267 28.4797 22.18C28.3597 22.62 28.133 23.0867 27.7997 23.58C27.4664 24.0733 26.9797 24.6267 26.3397 25.24L21.5597 29.78L21.0197 28.8H29.1997V31H18.8797Z" fill="white"/>
</svg>
