<svg width="22" height="27" viewBox="0 0 22 27" fill="none" xmlns="http://www.w3.org/2000/svg">
<path d="M20.1055 10.2369L17.0805 8.05326V5.34866C17.0805 5.01038 16.8062 4.73616 16.468 4.73616H15.3828C15.0445 4.73616 14.7703 5.01038 14.7703 5.34866V6.38616L11.3149 3.89236C11.1266 3.75642 10.8719 3.75642 10.6837 3.89236L1.89466 10.237C1.39856 10.5956 1.36498 11.3221 1.82669 11.7245C2.16029 12.0143 2.64857 12.0362 3.00637 11.7784L11.0002 6.00876L18.994 11.7784C19.3518 12.037 19.8409 12.0143 20.1737 11.7245C20.6354 11.3229 20.6026 10.5956 20.1057 10.237L20.1055 10.2369Z" fill="white"/>
<path d="M4.18359 12.4431V19.0251C4.18359 19.6821 4.71171 20.2102 5.36405 20.2102H16.6423C17.2938 20.2102 17.8274 19.6821 17.8274 19.0251V12.4431L10.9984 7.51025L4.18359 12.4431ZM14.0242 16.5313L14.1719 17.993C14.1961 18.2445 13.9945 18.4719 13.7375 18.4719H8.26167C8.00543 18.4719 7.80229 18.2445 7.82729 17.993L7.97573 16.5258C8.07963 15.6719 8.65229 14.9805 9.42261 14.6891C9.86245 15.025 10.4101 15.2227 10.9976 15.2227C11.5906 15.2227 12.1335 15.025 12.5726 14.6891C13.3476 14.9758 13.9203 15.6719 14.0242 16.5313ZM12.8195 12.5907C12.8195 13.593 12.0047 14.4078 10.9976 14.4078C9.99529 14.4078 9.18045 13.5938 9.18045 12.5907C9.18045 11.5883 9.99529 10.7735 10.9976 10.7735C12.0047 10.7735 12.8195 11.5875 12.8195 12.5907Z" fill="white"/>
</svg>
