<svg width="21" height="26" viewBox="0 0 21 26" fill="none" xmlns="http://www.w3.org/2000/svg">
<path fill-rule="evenodd" clip-rule="evenodd" d="M13.2383 18.0828H15.5366C15.6097 17.6893 15.7559 17.1649 15.955 16.8836C16.5188 16.0816 17.0885 15.5113 17.5941 15.0058C18.5278 14.0729 19.2318 13.3687 19.1855 11.7679L19.0498 7.06365C19.008 6.4129 18.4607 5.96377 18.1646 6.13379C18.0587 6.19398 17.9737 6.33842 17.9379 6.58669L17.612 12.1206C17.8208 12.9542 16.7358 13.9849 16.3003 14.3986C16.2481 14.4483 16.2063 14.4882 16.1839 14.5115C16.0825 14.6138 15.9177 14.6153 15.8163 14.513C15.7149 14.4107 15.7134 14.2444 15.8148 14.1421C15.8484 14.1075 15.8909 14.0676 15.9438 14.0172C16.3174 13.6621 17.2556 12.7714 17.1057 12.2433C17.0922 12.2026 17.0907 12.1936 17.0371 12.1402C16.8745 11.9762 16.6075 11.8859 16.3569 11.9551C16.2257 11.9912 16.0855 12.071 15.9438 12.2139L15.9363 12.2214L13.8736 14.1429C13.5581 14.4363 13.3202 14.8049 13.3098 15.2127L13.2383 18.0828ZM11.8065 19.2007H12.6693C12.814 19.2007 12.9303 19.3181 12.9303 19.464C12.9303 19.61 12.814 19.7273 12.6693 19.7273H11.8065V20.3201H15.58L16.1855 19.2616V18.6071H11.8065L11.8065 19.2007ZM5.46314 18.0828H7.76149L7.6899 15.2112C7.67946 14.8034 7.44231 14.4348 7.12613 14.1414L5.06335 12.22L5.0559 12.2125C4.50108 11.6528 3.95071 12.071 3.89404 12.2418C3.74415 12.7699 4.68303 13.6607 5.0559 14.0158C5.10884 14.0662 5.15135 14.106 5.18491 14.1406C5.28633 14.243 5.28633 14.41 5.18342 14.5115C5.082 14.6138 4.91645 14.6138 4.81577 14.51C4.79339 14.4875 4.75163 14.4468 4.69943 14.3972C4.26393 13.9834 3.17812 12.9527 3.38768 12.1192L3.06105 6.58736C3.02525 6.33909 2.93949 6.19465 2.83434 6.13446C2.53828 5.96444 1.99091 6.41357 1.94916 7.06432L1.81343 11.7686C1.7672 13.3695 2.47117 14.0737 3.40483 15.0064C3.91118 15.5128 4.48018 16.0823 5.04396 16.8842C5.24382 17.1656 5.39006 17.69 5.46314 18.0828ZM9.19331 19.7273H8.3305C8.18582 19.7273 8.06949 19.61 8.06949 19.464C8.06949 19.3181 8.18582 19.2007 8.3305 19.2007H9.19331V18.6079H4.81424V19.2624L5.41978 20.3209H9.19329L9.19331 19.7273ZM8.81596 3.88967C9.07995 3.88967 9.32156 3.78886 9.508 3.60078L10.1784 2.92445C10.3559 2.7454 10.646 2.7454 10.8235 2.92445L11.4939 3.60078C11.6803 3.78886 11.9212 3.88967 12.1859 3.88967H13.1338C13.3843 3.88967 13.5902 4.09655 13.5902 4.35008V5.30626C13.5902 5.57258 13.6901 5.81632 13.8765 6.00441L14.5469 6.68074C14.7244 6.85979 14.7244 7.15243 14.5469 7.33149L13.8765 8.00782C13.6901 8.19589 13.5902 8.4389 13.5902 8.70596V9.66215C13.5902 9.91492 13.3851 10.1226 13.1338 10.1226H12.1859C11.922 10.1226 11.6803 10.2234 11.4939 10.4114L10.8235 11.0878C10.646 11.2668 10.3559 11.2668 10.1784 11.0878L9.508 10.4114C9.32157 10.2234 9.08069 10.1226 8.81596 10.1226H7.86813C7.61757 10.1226 7.41175 9.91568 7.41175 9.66215V8.70596C7.41175 8.43965 7.31182 8.1959 7.12538 8.00782L6.45497 7.33149C6.27748 7.15244 6.27748 6.85979 6.45497 6.68074L7.12538 6.00441C7.31182 5.81633 7.41175 5.57333 7.41175 5.30626V4.35008C7.41175 4.0973 7.61682 3.88967 7.86813 3.88967H8.81596ZM10.033 11.628L9.56915 13.3734L8.98226 12.4639C8.85772 12.2713 8.61237 12.2035 8.40953 12.3081L7.44978 12.8001L8.02101 10.647H8.81523C8.94648 10.647 9.04492 10.6883 9.13739 10.7816L9.80781 11.4579C9.87642 11.5272 9.95246 11.5844 10.033 11.628ZM12.9787 10.6478L13.55 12.801L12.5902 12.3089C12.3874 12.2051 12.1413 12.2713 12.0175 12.4647L11.4306 13.3742L10.9667 11.6289C11.0473 11.5852 11.1233 11.5281 11.192 11.4596L11.8624 10.7833C11.9556 10.6892 12.054 10.6486 12.1845 10.6486L12.9787 10.6478ZM11.9011 5.59145C11.1271 4.81055 9.87197 4.81055 9.09784 5.59145C8.3237 6.37236 8.32376 7.63852 9.09784 8.41948C9.87191 9.20039 11.127 9.20039 11.9011 8.41948C12.676 7.63933 12.676 6.37242 11.9011 5.59145ZM10.4999 4.47954C9.11656 4.47954 7.99576 5.61102 7.99576 7.00578C7.99576 8.40132 9.11735 9.53201 10.4999 9.53201C11.8833 9.53201 13.0041 8.40053 13.0041 7.00578C13.0041 5.61102 11.8825 4.47954 10.4999 4.47954ZM16.3188 5.28978C16.3188 5.14383 16.4352 5.02646 16.5798 5.02646C16.7245 5.02646 16.8408 5.14383 16.8408 5.28978V5.78329C16.8408 5.92924 16.7245 6.04661 16.5798 6.04661C16.4352 6.04661 16.3188 5.92924 16.3188 5.78329V5.28978ZM16.3188 3.7904C16.3188 3.64446 16.4352 3.52709 16.5798 3.52709C16.7245 3.52709 16.8408 3.64445 16.8408 3.7904V4.28467C16.8408 4.43062 16.7245 4.54799 16.5798 4.54799C16.4352 4.54799 16.3188 4.43062 16.3188 4.28467V3.7904ZM16.0817 4.52391H15.5925C15.4478 4.52391 15.3315 4.64127 15.3315 4.78722C15.3315 4.93317 15.4478 5.05054 15.5925 5.05054H16.0817C16.2263 5.05054 16.3427 4.93317 16.3427 4.78722C16.3427 4.64203 16.2256 4.52391 16.0817 4.52391ZM17.5679 4.52391H17.0787C16.9341 4.52391 16.8177 4.64127 16.8177 4.78722C16.8177 4.93317 16.9341 5.05054 17.0787 5.05054H17.5679C17.7126 5.05054 17.8289 4.93317 17.8289 4.78722C17.8289 4.64203 17.7119 4.52391 17.5679 4.52391ZM4.88298 5.58618C4.88298 5.44023 4.99932 5.32286 5.14399 5.32286C5.28867 5.32286 5.40501 5.44022 5.40501 5.58618V6.07969C5.40501 6.22564 5.28867 6.34301 5.14399 6.34301C4.99932 6.34301 4.88298 6.22564 4.88298 6.07969V5.58618ZM4.88298 4.0868C4.88298 3.94086 4.99932 3.82349 5.14399 3.82349C5.28867 3.82349 5.40501 3.94085 5.40501 4.0868V4.58032C5.40501 4.72627 5.28867 4.84363 5.14399 4.84363C4.99932 4.84363 4.88298 4.72627 4.88298 4.58032V4.0868ZM4.64584 4.82031H4.15663C4.01196 4.82031 3.89562 4.93767 3.89562 5.08362C3.89562 5.22957 4.01196 5.34694 4.15663 5.34694L4.64584 5.34618C4.79051 5.34618 4.90685 5.22882 4.90685 5.08287C4.90685 4.93767 4.79051 4.82031 4.64584 4.82031ZM6.1321 4.82031H5.6429C5.49822 4.82031 5.38189 4.93767 5.38189 5.08362C5.38189 5.22957 5.49822 5.34694 5.6429 5.34694H6.1321C6.27677 5.34694 6.39311 5.22957 6.39311 5.08362C6.39311 4.93768 6.27603 4.82031 6.1321 4.82031ZM15.3771 9.68096C15.3771 9.53502 15.4934 9.41765 15.6381 9.41765C15.7827 9.41765 15.8991 9.53501 15.8991 9.68096V10.1594C15.8991 10.3054 15.7828 10.4228 15.6381 10.4228C15.4934 10.4228 15.3771 10.3054 15.3771 10.1594V9.68096ZM15.3771 8.22749C15.3771 8.08154 15.4934 7.96417 15.6381 7.96417C15.7827 7.96417 15.8991 8.08154 15.8991 8.22749V8.70596C15.8991 8.85191 15.7828 8.96928 15.6381 8.96928C15.4934 8.96928 15.3771 8.85192 15.3771 8.70596V8.22749ZM15.1548 8.93014C15.2995 8.93014 15.4158 9.0475 15.4158 9.19345C15.4158 9.33941 15.2995 9.45677 15.1548 9.45677H14.6805C14.5359 9.45677 14.4195 9.33941 14.4195 9.19345C14.4195 9.0475 14.5359 8.93014 14.6805 8.93014H15.1548ZM16.5956 8.93014C16.7403 8.93014 16.8566 9.0475 16.8566 9.19345C16.8566 9.33941 16.7403 9.45677 16.5956 9.45677H16.1213C15.9766 9.45677 15.8603 9.33941 15.8603 9.19345C15.8603 9.0475 15.9766 8.93014 16.1213 8.93014H16.5956ZM10.2389 5.79531V5.89763C10.1494 5.93374 10.0689 5.9879 10.0018 6.05561C9.55879 6.50248 9.87423 7.26985 10.4999 7.26985C10.6013 7.26985 10.6826 7.35261 10.6826 7.45417C10.6826 7.65504 10.4089 7.70695 10.3314 7.52865C10.274 7.39624 10.1211 7.33455 9.98834 7.39323C9.85709 7.45116 9.79594 7.60539 9.8541 7.7393C9.92868 7.91233 10.0674 8.04626 10.2389 8.11545V8.21777C10.2389 8.36372 10.3552 8.48108 10.4999 8.48108C10.6446 8.48108 10.7609 8.36372 10.7609 8.21777V8.11545C10.8504 8.07934 10.931 8.02518 10.9981 7.95747C11.441 7.5106 11.1256 6.74323 10.4999 6.74323C10.3985 6.74323 10.3172 6.66047 10.3172 6.55891C10.3172 6.35503 10.5984 6.30463 10.6707 6.49045C10.7229 6.62587 10.8743 6.69208 11.0085 6.63941C11.1427 6.58675 11.2084 6.43403 11.1562 6.29862C11.0846 6.11505 10.9406 5.97061 10.7609 5.89839V5.79608C10.7609 5.65013 10.6446 5.53276 10.4999 5.53276C10.3552 5.53126 10.2389 5.65011 10.2389 5.79531Z" fill="#FFFDFD"/>
</svg>
