<svg width="27" height="27" viewBox="0 0 27 27" fill="none" xmlns="http://www.w3.org/2000/svg">
<path fill-rule="evenodd" clip-rule="evenodd" d="M23.9008 6.73274C23.1531 7.06406 22.3508 7.28876 21.5078 7.38908C22.3686 6.87365 23.0274 6.05611 23.3397 5.08494C22.5323 5.56226 21.6411 5.90886 20.6915 6.09674C19.9311 5.28554 18.8495 4.78027 17.6498 4.78027C15.3482 4.78027 13.4821 6.64643 13.4821 8.94674C13.4821 9.27299 13.5189 9.59163 13.59 9.89634C10.1268 9.72239 7.05596 8.06318 5.00066 5.54194C4.64139 6.15639 4.437 6.87236 4.437 7.63662C4.437 9.08258 5.17331 10.3584 6.29047 11.1049C5.60748 11.082 4.96511 10.8941 4.40274 10.5818V10.6339C4.40274 12.6524 5.83981 14.337 7.7453 14.7204C7.39618 14.8143 7.02805 14.8664 6.64719 14.8664C6.37808 14.8664 6.11782 14.8397 5.86265 14.7889C6.39328 16.4456 7.93193 17.6503 9.75493 17.6834C8.32928 18.8005 6.53167 19.4645 4.57921 19.4645C4.24281 19.4645 3.91145 19.4442 3.58521 19.4074C5.42978 20.5918 7.61966 21.2824 9.97329 21.2824C17.6397 21.2824 21.8303 14.9324 21.8303 9.42536L21.8164 8.88583C22.6352 8.30182 23.3435 7.56807 23.9008 6.73274Z" fill="white"/>
<mask id="mask0_166_17949" style="mask-type:luminance" maskUnits="userSpaceOnUse" x="3" y="4" width="21" height="18">
<path fill-rule="evenodd" clip-rule="evenodd" d="M23.9008 6.73274C23.1531 7.06406 22.3508 7.28876 21.5078 7.38908C22.3686 6.87365 23.0274 6.05611 23.3397 5.08494C22.5323 5.56226 21.6411 5.90886 20.6915 6.09674C19.9311 5.28554 18.8495 4.78027 17.6498 4.78027C15.3482 4.78027 13.4821 6.64643 13.4821 8.94674C13.4821 9.27299 13.5189 9.59163 13.59 9.89634C10.1268 9.72239 7.05596 8.06318 5.00066 5.54194C4.64139 6.15639 4.437 6.87236 4.437 7.63662C4.437 9.08258 5.17331 10.3584 6.29047 11.1049C5.60748 11.082 4.96511 10.8941 4.40274 10.5818V10.6339C4.40274 12.6524 5.83981 14.337 7.7453 14.7204C7.39618 14.8143 7.02805 14.8664 6.64719 14.8664C6.37808 14.8664 6.11782 14.8397 5.86265 14.7889C6.39328 16.4456 7.93193 17.6503 9.75493 17.6834C8.32928 18.8005 6.53167 19.4645 4.57921 19.4645C4.24281 19.4645 3.91145 19.4442 3.58521 19.4074C5.42978 20.5918 7.61966 21.2824 9.97329 21.2824C17.6397 21.2824 21.8303 14.9324 21.8303 9.42536L21.8164 8.88583C22.6352 8.30182 23.3435 7.56807 23.9008 6.73274Z" fill="white"/>
</mask>
<g mask="url(#mask0_166_17949)">
</g>
</svg>
