<svg width="44" height="124" viewBox="0 0 44 124" fill="none" xmlns="http://www.w3.org/2000/svg">
<path d="M37.8364 33.8108C36.5203 35.1475 35.2317 36.4602 33.9386 37.7685C32.6436 39.0781 31.3434 40.3831 30.0459 41.6904C28.7039 43.0428 27.369 44.4028 26.0174 45.7455C24.7251 47.0294 23.4905 48.3798 22.0062 49.6931C21.362 49.093 20.8484 48.645 20.3688 48.1626C15.9343 43.7053 11.5075 39.2399 7.07199 34.7836C6.68583 34.3956 6.25298 34.055 6.17748 33.9886C4.58815 35.3877 3.13528 36.6663 1.49129 38.1134C4.93289 41.5506 8.26757 44.9459 11.6466 48.3001C15.0677 51.697 18.4242 55.1599 21.8926 58.6789C28.7384 51.8027 35.5097 45.0016 42.2372 38.2445C40.7408 36.7367 39.3588 35.345 37.8364 33.8108ZM0.0526503 38.1574C0.218239 37.8662 0.301689 37.6134 0.468269 37.4432C2.1957 35.6753 3.93672 33.9206 5.7393 32.0952C7.37468 33.2704 8.56328 34.7616 9.91515 36.0689C11.2392 37.3488 12.5169 38.6772 13.8151 39.9845C15.1577 41.3365 16.4987 42.6909 17.8439 44.0409C19.1349 45.3365 20.4304 46.6275 21.7979 47.9945C27.4524 42.9207 32.5678 37.4933 37.8758 32.2476C38.2256 32.4228 38.5363 32.5195 38.7733 32.7097C39.1673 33.0256 39.5258 33.3902 39.8785 33.7545C41.2244 35.1445 42.5619 36.5426 44 38.0394C41.753 40.8181 39.0593 43.0188 36.6727 45.516C34.3153 47.9818 31.9124 50.404 29.5113 52.8278C27.0735 55.288 24.6142 57.7262 22.0827 60.2561C21.6756 59.9725 21.2845 59.778 20.9921 59.4841C14.2698 52.731 7.55683 45.9683 0.850124 39.1995C0.550724 38.8976 0.326866 38.5197 0.0526503 38.1574Z" fill="#E5951A"/>
<path d="M21.825 90.311C28.543 83.5445 35.3221 76.7164 42.1234 69.8663C40.7891 68.5873 39.309 67.1686 37.8142 65.7358C32.587 70.9704 27.2574 76.3085 21.8442 81.7296C19.0796 78.9621 16.4646 76.3355 13.8393 73.7195C11.1846 71.0735 8.64244 68.3078 5.80359 65.7312C4.34736 67.3257 2.80872 68.54 1.70389 70.0521C8.54739 76.9423 15.2962 83.7374 21.825 90.311ZM0.276532 69.9447C2.08809 68.1153 3.91617 66.2689 5.82014 64.3458C7.21108 64.7471 8.00624 66.0467 9.02761 67.0048C10.9895 68.8448 12.8318 70.8146 14.7289 72.7251C16.492 74.5007 18.2655 76.2657 20.0261 78.0441C20.6401 78.6639 21.2296 79.308 21.9403 80.0573C27.2136 74.7603 32.4804 69.47 37.6987 64.2284C39.0693 64.9599 42.5157 68.3248 43.6906 69.9523C36.391 77.3045 29.1096 84.6381 21.9803 91.8188C14.8746 84.6571 7.59558 77.3216 0.276532 69.9447Z" fill="#E5951A"/>
<path d="M37.8006 1.76004C32.5526 7.04301 27.2971 12.3333 21.99 17.676C16.5894 12.2392 11.3296 6.94458 6.0311 1.61088C4.47755 3.18673 2.971 4.60182 1.67509 6.04724C8.4795 12.9081 15.1302 19.6128 21.9701 26.509C25.4018 23.2795 28.7136 19.7913 32.1135 16.3957C35.524 12.9895 38.9382 9.58626 42.3925 6.14C40.8233 4.64288 39.3608 3.24816 37.8006 1.76004ZM-1.13843e-06 6.11695C2.05628 4.01971 3.95361 2.08458 5.99732 4.30709e-06C11.3296 5.36637 16.5864 10.6574 21.9906 16.0958C27.3077 10.7417 32.5993 5.41308 37.7458 0.230857C39.7848 2.31875 41.7233 4.3036 43.7463 6.37516C43.4556 6.69173 43.05 7.16374 42.613 7.60408C36.2645 14.0049 29.9124 20.4024 23.5591 26.7978C22.517 27.8473 21.4827 27.8582 20.4563 26.8305C14.0579 20.39 7.6615 13.9472 1.26743 7.50199C0.872653 7.10336 0.508372 6.67438 -1.13843e-06 6.11695Z" fill="#E5951A"/>
<path d="M21.975 122.484C22.0962 122.455 22.2327 122.453 22.335 122.392C22.4963 122.297 22.6483 122.176 22.7805 122.042C29.2514 115.506 35.7197 108.967 42.1858 102.425C42.2241 102.387 42.2343 102.312 42.2411 102.252C42.2481 102.191 42.2343 102.128 42.2304 102.076C40.7901 100.646 39.3551 99.223 37.8194 97.6992C32.5877 102.991 27.3296 108.31 21.9823 113.718C19.2898 111.009 16.658 108.359 14.0244 105.711C11.3651 103.036 8.70436 100.362 6.26226 97.9064C4.64345 99.4245 3.17467 100.802 1.71285 102.174C3.01769 103.921 20.797 121.732 21.975 122.484ZM22.0837 112.241C27.4382 106.838 32.7006 101.528 37.7937 96.3886C39.7786 98.358 41.7481 100.312 43.5888 102.139C36.4406 109.336 29.2173 116.61 21.878 124C21.7684 123.936 21.4008 123.812 21.155 123.566C14.2589 116.64 7.37468 109.702 0.492773 102.762C0.364298 102.632 0.284471 102.453 0.0741673 102.135C1.93507 100.114 3.94333 98.2069 6.0175 96.073C11.3279 101.417 16.5835 106.706 22.0837 112.241Z" fill="#E5951A"/>
</svg>
