<svg width="152" height="166" viewBox="0 0 152 166" fill="none" xmlns="http://www.w3.org/2000/svg">
<path d="M11.3223 12.2881V14.9844H0.601562V12.2881H11.3223ZM7.43359 8.04492V19.4316H4.50098V8.04492H7.43359Z" fill="#44200D"/>
<path d="M11.3223 47.2881V49.9844H0.601562V47.2881H11.3223ZM7.43359 43.0449V54.4316H4.50098V43.0449H7.43359Z" fill="#E5E5E5"/>
<path d="M11.3223 82.2881V84.9844H0.601562V82.2881H11.3223ZM7.43359 78.0449V89.4316H4.50098V78.0449H7.43359Z" fill="#E5E5E5"/>
<path d="M46.3223 12.2881V14.9844H35.6016V12.2881H46.3223ZM42.4336 8.04492V19.4316H39.501V8.04492H42.4336Z" fill="#E5E5E5"/>
<path d="M46.3223 47.2881V49.9844H35.6016V47.2881H46.3223ZM42.4336 43.0449V54.4316H39.501V43.0449H42.4336Z" fill="#E5E5E5"/>
<path d="M46.3223 82.2881V84.9844H35.6016V82.2881H46.3223ZM42.4336 78.0449V89.4316H39.501V78.0449H42.4336Z" fill="#E5E5E5"/>
<path d="M46.3223 117.288V119.984H35.6016V117.288H46.3223ZM42.4336 113.045V124.432H39.501V113.045H42.4336Z" fill="#E5E5E5"/>
<path d="M81.3223 12.2881V14.9844H70.6016V12.2881H81.3223ZM77.4336 8.04492V19.4316H74.501V8.04492H77.4336Z" fill="#E5E5E5"/>
<path d="M81.3223 47.2881V49.9844H70.6016V47.2881H81.3223ZM77.4336 43.0449V54.4316H74.501V43.0449H77.4336Z" fill="#E5E5E5"/>
<path d="M81.3223 82.2881V84.9844H70.6016V82.2881H81.3223ZM77.4336 78.0449V89.4316H74.501V78.0449H77.4336Z" fill="#E39124"/>
<path d="M81.3223 117.288V119.984H70.6016V117.288H81.3223ZM77.4336 113.045V124.432H74.501V113.045H77.4336Z" fill="#E5E5E5"/>
<path d="M81.3223 152.288V154.984H70.6016V152.288H81.3223ZM77.4336 148.045V159.432H74.501V148.045H77.4336Z" fill="#E5E5E5"/>
<path d="M116.322 12.2881V14.9844H105.602V12.2881H116.322ZM112.434 8.04492V19.4316H109.501V8.04492H112.434Z" fill="#E5E5E5"/>
<path d="M116.322 47.2881V49.9844H105.602V47.2881H116.322ZM112.434 43.0449V54.4316H109.501V43.0449H112.434Z" fill="#E5E5E5"/>
<path d="M116.322 82.2881V84.9844H105.602V82.2881H116.322ZM112.434 78.0449V89.4316H109.501V78.0449H112.434Z" fill="#E5E5E5"/>
<path d="M116.322 117.288V119.984H105.602V117.288H116.322ZM112.434 113.045V124.432H109.501V113.045H112.434Z" fill="#E5E5E5"/>
<path d="M116.322 152.288V154.984H105.602V152.288H116.322ZM112.434 148.045V159.432H109.501V148.045H112.434Z" fill="#E5E5E5"/>
<path d="M151.322 12.2881V14.9844H140.602V12.2881H151.322ZM147.434 8.04492V19.4316H144.501V8.04492H147.434Z" fill="#E5E5E5"/>
<path d="M151.322 47.2881V49.9844H140.602V47.2881H151.322ZM147.434 43.0449V54.4316H144.501V43.0449H147.434Z" fill="#E5E5E5"/>
<path d="M151.322 82.2881V84.9844H140.602V82.2881H151.322ZM147.434 78.0449V89.4316H144.501V78.0449H147.434Z" fill="#E5E5E5"/>
<path d="M151.322 117.288V119.984H140.602V117.288H151.322ZM147.434 113.045V124.432H144.501V113.045H147.434Z" fill="#E5E5E5"/>
<path d="M151.322 152.288V154.984H140.602V152.288H151.322ZM147.434 148.045V159.432H144.501V148.045H147.434Z" fill="#E5E5E5"/>
</svg>
